<svg width="119" height="30" viewBox="0 0 119 30" fill="none" xmlns="http://www.w3.org/2000/svg">
<path d="M67.4132 9.78518C67.4132 6.34814 67.4727 3.14814 67.6512 0.185181L58.5477 1.9037V2.73333L59.4402 2.85185C60.0947 2.91111 60.5112 3.14814 60.7492 3.5037C60.9872 3.91851 61.1657 4.51111 61.2847 5.4C61.4037 7.11851 61.5227 11.0296 61.4632 17.1926C61.4632 23.2963 61.4037 27.1481 61.2847 28.6296C64.5572 29.3407 67.1157 29.637 69.0197 29.637C72.5897 29.637 75.3862 28.6296 77.4092 26.5556C79.4322 24.5407 80.5032 21.6963 80.5032 18.2C80.5032 15.4148 79.7297 13.1037 78.1827 11.2667C76.6357 9.42963 74.6722 8.54074 72.3517 8.54074C70.8047 8.54074 69.1982 8.95555 67.4132 9.78518ZM67.5917 28.037C67.4727 26.1407 67.3537 20.4518 67.3537 11.1481C67.8892 10.9704 68.6032 10.8518 69.4957 10.8518C70.9237 10.8518 72.0542 11.563 72.8872 13.0444C73.7202 14.5259 74.1367 16.3037 74.1367 18.5556C74.1367 21.3407 73.6607 23.5926 72.7087 25.4889C71.7567 27.3259 70.5667 28.2741 69.0792 28.2741C68.6032 28.1556 68.1272 28.0963 67.5917 28.037ZM24.3947 0.777773H0.594727V1.96296L1.84423 2.08148C2.79623 2.25925 3.45073 2.61481 3.86723 3.14814C4.28373 3.74074 4.52173 4.68888 4.58123 5.99259C5.05723 12.3926 5.05723 18.3778 4.58123 23.8889C4.46223 25.1926 4.22423 26.1407 3.86723 26.7333C3.45073 27.3259 2.79623 27.6815 1.84423 27.8L0.594727 27.9778V29.163H15.9457V27.9778L14.3392 27.8593C13.3872 27.7407 12.7327 27.3259 12.3162 26.7926C11.8997 26.2 11.6617 25.2518 11.6022 23.9481C11.4237 21.5778 11.3047 18.8518 11.3047 15.8296L14.5177 15.8889C16.2432 15.9481 17.4332 17.2518 18.0282 19.8593H19.2182V10.2H18.0282C17.4332 12.7481 16.3027 14.0518 14.5177 14.1111L11.3047 14.1704C11.3047 8.83703 11.4237 5.04444 11.6022 2.73333H16.3027C19.6347 2.73333 21.8957 4.86666 23.2047 9.13333L24.6327 8.71851L24.3947 0.777773ZM21.5982 19.0296C21.5982 22.1111 22.4907 24.6593 24.2162 26.6741C25.9417 28.6889 28.5002 29.637 31.7132 29.637C34.9262 29.637 37.5442 28.6296 39.4482 26.5556C41.3522 24.5407 42.2447 21.9926 42.2447 18.9111C42.2447 15.8296 41.3522 13.2815 39.6267 11.2667C37.9012 9.25185 35.3427 8.3037 32.1297 8.3037C28.9167 8.3037 26.2987 9.31111 24.3947 11.3852C22.4907 13.4 21.5982 15.9481 21.5982 19.0296ZM34.8667 12.2741C35.5807 13.9926 35.8782 16.2444 35.8782 18.9704C35.8782 25.2518 34.5692 28.3333 32.0107 28.3333C30.7017 28.3333 29.6902 27.4444 28.9762 25.6667C28.2622 23.8889 27.9647 21.637 27.9647 18.9704C27.9647 12.7481 29.2737 9.66666 31.8322 9.66666C33.1412 9.6074 34.1527 10.4963 34.8667 12.2741ZM85.1442 26.6741C87.1077 28.6296 89.6067 29.637 92.5817 29.637C94.4262 29.637 96.0327 29.2815 97.4607 28.5111C98.8887 27.8 100.019 26.9111 100.793 25.8444L100.198 25.1333C98.8887 26.1407 97.4012 26.6148 95.6757 26.6148C93.2957 26.6148 91.4512 25.8444 90.2017 24.2444C88.8927 22.6444 88.2977 20.6296 88.4167 18.0222H101.15C101.15 15.1778 100.436 12.8667 98.9482 11.0296C97.4607 9.25185 95.3782 8.36296 92.7007 8.36296C89.3687 8.36296 86.8102 9.42963 84.9657 11.5037C83.1212 13.5778 82.2287 16.1259 82.2287 19.1481C82.2287 22.2296 83.1807 24.7185 85.1442 26.6741ZM89.5472 11.8C90.2017 10.3778 91.0347 9.66666 92.1652 9.66666C93.9502 9.66666 94.8427 11.9185 94.8427 16.4815L88.5357 16.6C88.5952 14.8222 88.8927 13.2222 89.5472 11.8ZM117.155 9.42963C115.549 8.71851 113.526 8.3037 111.086 8.3037C108.587 8.3037 106.624 8.95555 105.136 10.2C103.649 11.4444 102.875 12.9852 102.875 14.8222C102.875 16.4222 103.351 17.6667 104.244 18.5556C105.136 19.4444 106.564 20.2148 108.409 20.8667C110.075 21.4593 111.265 22.0518 111.86 22.5852C112.455 23.1778 112.812 23.8296 112.812 24.7185C112.812 25.5481 112.514 26.3185 111.86 26.9111C111.265 27.563 110.432 27.8593 109.361 27.8593C106.743 27.8593 104.779 25.963 103.411 22.1704L102.399 22.4667L102.637 28.3926C104.779 29.2222 107.159 29.637 109.777 29.637C112.514 29.637 114.597 29.0444 116.144 27.8C117.691 26.6148 118.464 24.8963 118.464 22.763C118.464 21.3407 118.107 20.1556 117.334 19.2667C116.56 18.3778 115.311 17.6074 113.526 16.8963C111.562 16.1852 110.194 15.5333 109.48 14.9407C108.766 14.3481 108.409 13.637 108.409 12.7481C108.409 11.8593 108.647 11.1481 109.182 10.5556C109.718 9.96296 110.372 9.72592 111.205 9.72592C113.585 9.72592 115.311 11.4444 116.382 14.8222L117.393 14.5259L117.155 9.42963ZM59.9162 8.89629C59.0832 8.48148 58.1907 8.3037 57.1792 8.3037C56.1677 8.3037 55.1562 8.71851 54.0257 9.54814C52.8952 10.3778 52.0622 11.5037 51.4077 13.0444L51.4672 8.3037L42.4232 10.0815V10.9111L43.3157 10.9704C44.4462 11.0889 45.1007 11.9778 45.2197 13.5778C45.5767 17.2518 45.5767 21.163 45.2197 25.3111C45.1007 26.9111 44.4462 27.7407 43.3157 27.9185L42.4232 28.037V29.163H55.0372V28.037L53.4307 27.9185C52.3002 27.8 51.6457 26.9111 51.5267 25.3111C51.1697 21.8741 51.1102 18.2 51.4077 14.4074C51.7647 13.8148 52.5382 13.4593 53.7282 13.3407C54.9182 13.2222 56.2867 13.5778 57.7147 14.4074L59.9162 8.89629Z" fill="white" fill-opacity="0.6"/>
</svg>
